# This file uses centimeters as units for non-parametric coordinates.

v 23.093158 0.035489 -7.503417
v 19.644214 0.035489 -14.272350
v 14.272357 0.035489 -19.644206
v 7.503422 0.035489 -23.093149
v 0.000003 0.035489 -24.281572
v -7.503417 0.035489 -23.093147
v -14.272349 0.035489 -19.644202
v -19.644202 0.035489 -14.272346
v -23.093144 0.035489 -7.503414
v -24.281568 0.035489 0.000004
v -23.093144 0.035489 7.503422
v -19.644200 0.035489 14.272352
v -14.272346 0.035489 19.644205
v -7.503415 0.035489 23.093147
v 0.000002 0.035489 24.281571
v 7.503418 0.035489 23.093146
v 14.272348 0.035489 19.644204
v 19.644201 0.035489 14.272351
v 23.093143 0.035489 7.503420
v 24.281567 0.035489 0.000004
v 0.000003 0.035489 0.000004
vt 0.648603 0.107966
vt 0.626409 0.064408
vt 0.591842 0.029841
vt 0.548284 0.007647
vt 0.500000 -0.000000
vt 0.451716 0.007647
vt 0.408159 0.029841
vt 0.373591 0.064409
vt 0.351397 0.107966
vt 0.343750 0.156250
vt 0.351397 0.204534
vt 0.373591 0.248091
vt 0.408159 0.282659
vt 0.451716 0.304853
vt 0.500000 0.312500
vt 0.548284 0.304853
vt 0.591841 0.282659
vt 0.626409 0.248091
vt 0.648603 0.204534
vt 0.656250 0.156250
vt 0.500000 0.150000
vn 0.000000 1.000000 0.000000
vn 0.000000 1.000000 0.000000
vn 0.000000 1.000000 0.000000
vn 0.000000 1.000000 0.000000
vn 0.000000 1.000000 0.000000
vn 0.000000 1.000000 0.000000
vn 0.000000 1.000000 0.000000
vn 0.000000 1.000000 0.000000
vn 0.000000 1.000000 0.000000
vn 0.000000 1.000000 0.000000
vn 0.000000 1.000000 0.000000
vn 0.000000 1.000000 0.000000
vn 0.000000 1.000000 0.000000
vn 0.000000 1.000000 0.000000
vn 0.000000 1.000000 0.000000
vn 0.000000 1.000000 0.000000
vn 0.000000 1.000000 0.000000
vn 0.000000 1.000000 0.000000
vn 0.000000 1.000000 0.000000
vn 0.000000 1.000000 0.000000
vn 0.000000 1.000000 0.000000
f 2/2/1 21/21/2 1/1/3
f 3/3/4 21/21/2 2/2/1
f 4/4/5 21/21/2 3/3/4
f 5/5/6 21/21/2 4/4/5
f 6/6/7 21/21/2 5/5/6
f 7/7/8 21/21/2 6/6/7
f 8/8/9 21/21/2 7/7/8
f 9/9/10 21/21/2 8/8/9
f 10/10/11 21/21/2 9/9/10
f 11/11/12 21/21/2 10/10/11
f 12/12/13 21/21/2 11/11/12
f 13/13/14 21/21/2 12/12/13
f 14/14/15 21/21/2 13/13/14
f 15/15/16 21/21/2 14/14/15
f 16/16/17 21/21/2 15/15/16
f 17/17/18 21/21/2 16/16/17
f 18/18/19 21/21/2 17/17/18
f 19/19/20 21/21/2 18/18/19
f 20/20/21 21/21/2 19/19/20
f 1/1/3 21/21/2 20/20/21
v 23.093158 0.035489 -7.503417
v 19.644214 0.035489 -14.272350
v 14.272357 0.035489 -19.644206
v 7.503422 0.035489 -23.093149
v 0.000003 0.035489 -24.281572
v -7.503417 0.035489 -23.093147
v -14.272349 0.035489 -19.644202
v -19.644202 0.035489 -14.272346
v -23.093144 0.035489 -7.503414
v -24.281568 0.035489 0.000004
v -23.093144 0.035489 7.503422
v -19.644200 0.035489 14.272352
v -14.272346 0.035489 19.644205
v -7.503415 0.035489 23.093147
v 0.000002 0.035489 24.281571
v 7.503418 0.035489 23.093146
v 14.272348 0.035489 19.644204
v 19.644201 0.035489 14.272351
v 23.093143 0.035489 7.503420
v 24.281567 0.035489 0.000004
v 0.000003 0.035489 0.000004
vt 0.648603 0.107966
vt 0.626409 0.064408
vt 0.591842 0.029841
vt 0.548284 0.007647
vt 0.500000 -0.000000
vt 0.451716 0.007647
vt 0.408159 0.029841
vt 0.373591 0.064409
vt 0.351397 0.107966
vt 0.343750 0.156250
vt 0.351397 0.204534
vt 0.373591 0.248091
vt 0.408159 0.282659
vt 0.451716 0.304853
vt 0.500000 0.312500
vt 0.548284 0.304853
vt 0.591841 0.282659
vt 0.626409 0.248091
vt 0.648603 0.204534
vt 0.656250 0.156250
vt 0.500000 0.150000
vn 0.000000 1.000000 0.000000
vn 0.000000 1.000000 0.000000
vn 0.000000 1.000000 0.000000
vn 0.000000 1.000000 0.000000
vn 0.000000 1.000000 0.000000
vn 0.000000 1.000000 0.000000
vn 0.000000 1.000000 0.000000
vn 0.000000 1.000000 0.000000
vn 0.000000 1.000000 0.000000
vn 0.000000 1.000000 0.000000
vn 0.000000 1.000000 0.000000
vn 0.000000 1.000000 0.000000
vn 0.000000 1.000000 0.000000
vn 0.000000 1.000000 0.000000
vn 0.000000 1.000000 0.000000
vn 0.000000 1.000000 0.000000
vn 0.000000 1.000000 0.000000
vn 0.000000 1.000000 0.000000
vn 0.000000 1.000000 0.000000
vn 0.000000 1.000000 0.000000
vn 0.000000 1.000000 0.000000
f 23/23/22 42/42/23 22/22/24
f 24/24/25 42/42/23 23/23/22
f 25/25/26 42/42/23 24/24/25
f 26/26/27 42/42/23 25/25/26
f 27/27/28 42/42/23 26/26/27
f 28/28/29 42/42/23 27/27/28
f 29/29/30 42/42/23 28/28/29
f 30/30/31 42/42/23 29/29/30
f 31/31/32 42/42/23 30/30/31
f 32/32/33 42/42/23 31/31/32
f 33/33/34 42/42/23 32/32/33
f 34/34/35 42/42/23 33/33/34
f 35/35/36 42/42/23 34/34/35
f 36/36/37 42/42/23 35/35/36
f 37/37/38 42/42/23 36/36/37
f 38/38/39 42/42/23 37/37/38
f 39/39/40 42/42/23 38/38/39
f 40/40/41 42/42/23 39/39/40
f 41/41/42 42/42/23 40/40/41
f 22/22/24 42/42/23 41/41/42
