# This file uses centimeters as units for non-parametric coordinates.

v -10.123569 -0.023236 12.648660
v 6.092307 -0.023236 12.648660
v -10.123569 8.631568 12.648660
v 6.092307 8.631568 12.648660
v -10.123569 8.631568 -6.802353
v 6.092307 8.631568 -6.802353
v -10.123569 -0.023236 -6.802353
v 6.092307 -0.023236 -6.802353
vt 0.375000 0.000000
vt 0.625000 0.000000
vt 0.375000 0.250000
vt 0.625000 0.250000
vt 0.375000 0.500000
vt 0.625000 0.500000
vt 0.375000 0.750000
vt 0.625000 0.750000
vt 0.375000 1.000000
vt 0.625000 1.000000
vt 0.875000 0.000000
vt 0.875000 0.250000
vt 0.125000 0.000000
vt 0.125000 0.250000
vn 0.000000 0.000000 -1.000000
vn 0.000000 0.000000 -1.000000
vn 0.000000 0.000000 -1.000000
vn 0.000000 0.000000 -1.000000
vn 0.000000 -1.000000 0.000000
vn 0.000000 -1.000000 0.000000
vn 0.000000 -1.000000 0.000000
vn 0.000000 -1.000000 0.000000
vn 0.000000 0.000000 1.000000
vn 0.000000 0.000000 1.000000
vn 0.000000 0.000000 1.000000
vn 0.000000 0.000000 1.000000
vn 0.000000 1.000000 0.000000
vn 0.000000 1.000000 0.000000
vn 0.000000 1.000000 0.000000
vn 0.000000 1.000000 0.000000
vn -1.000000 0.000000 0.000000
vn -1.000000 0.000000 0.000000
vn -1.000000 0.000000 0.000000
vn -1.000000 0.000000 0.000000
vn 1.000000 0.000000 0.000000
vn 1.000000 0.000000 0.000000
vn 1.000000 0.000000 0.000000
vn 1.000000 0.000000 0.000000
f 1/1/1 3/3/2 2/2/3
f 2/2/3 3/3/2 4/4/4
f 3/3/5 5/5/6 4/4/7
f 4/4/7 5/5/6 6/6/8
f 5/5/9 7/7/10 6/6/11
f 6/6/11 7/7/10 8/8/12
f 7/7/13 1/9/14 8/8/15
f 8/8/15 1/9/14 2/10/16
f 2/2/17 4/4/18 8/11/19
f 8/11/19 4/4/18 6/12/20
f 7/13/21 5/14/22 1/1/23
f 1/1/23 5/14/22 3/3/24
