# This file uses centimeters as units for non-parametric coordinates.

v -1.801676 0.042469 -0.656521
v -2.157081 0.042469 -1.145695
v -2.680724 0.042469 -1.448020
v -3.282063 0.042469 -1.511224
v -3.857120 0.042469 -1.324376
v -4.306464 0.042469 -0.919786
v -4.552398 0.042469 -0.367409
v -4.552398 0.042469 0.237242
v -4.306464 0.042469 0.789618
v -3.857121 0.042469 1.194209
v -3.282063 0.042469 1.381057
v -2.680724 0.042469 1.317854
v -2.157081 0.042469 1.015528
v -1.801675 0.042469 0.526355
v -1.675961 0.042469 -0.065084
v -1.801676 2.950682 -0.656521
v -2.157081 2.950682 -1.145695
v -2.680724 2.950682 -1.448020
v -3.282063 2.950682 -1.511224
v -3.857120 2.950682 -1.324376
v -4.306464 2.950682 -0.919786
v -4.552398 2.950682 -0.367409
v -4.552398 2.950682 0.237242
v -4.306464 2.950682 0.789618
v -3.857121 2.950682 1.194209
v -3.282063 2.950682 1.381057
v -2.680724 2.950682 1.317854
v -2.157081 2.950682 1.015528
v -1.801675 2.950682 0.526355
v -1.675961 2.950682 -0.065084
v -3.130068 0.042469 -0.065084
v -3.130068 2.950682 -0.065084
vt 0.642741 0.092697
vt 0.604552 0.040134
vt 0.548284 0.007647
vt 0.483667 0.000856
vt 0.421875 0.020934
vt 0.373591 0.064409
vt 0.347164 0.123764
vt 0.347164 0.188736
vt 0.373591 0.248091
vt 0.421875 0.291566
vt 0.483667 0.311644
vt 0.548284 0.304853
vt 0.604552 0.272366
vt 0.642741 0.219803
vt 0.656250 0.156250
vt 0.375000 0.312500
vt 0.391667 0.312500
vt 0.408333 0.312500
vt 0.425000 0.312500
vt 0.441667 0.312500
vt 0.458333 0.312500
vt 0.475000 0.312500
vt 0.491667 0.312500
vt 0.508333 0.312500
vt 0.525000 0.312500
vt 0.541667 0.312500
vt 0.558333 0.312500
vt 0.575000 0.312500
vt 0.591667 0.312500
vt 0.608333 0.312500
vt 0.625000 0.312500
vt 0.375000 0.688440
vt 0.391667 0.688440
vt 0.408333 0.688440
vt 0.425000 0.688440
vt 0.441667 0.688440
vt 0.458333 0.688440
vt 0.475000 0.688440
vt 0.491667 0.688440
vt 0.508333 0.688440
vt 0.525000 0.688440
vt 0.541667 0.688440
vt 0.558333 0.688440
vt 0.575000 0.688440
vt 0.591667 0.688440
vt 0.608333 0.688440
vt 0.625000 0.688440
vt 0.642741 0.780197
vt 0.604552 0.727634
vt 0.548284 0.695147
vt 0.483667 0.688356
vt 0.421875 0.708434
vt 0.373591 0.751909
vt 0.347164 0.811264
vt 0.347164 0.876236
vt 0.373591 0.935591
vt 0.421875 0.979066
vt 0.483667 0.999144
vt 0.548284 0.992353
vt 0.604552 0.959866
vt 0.642741 0.907303
vt 0.656250 0.843750
vt 0.500000 0.150000
vt 0.500000 0.837500
vn 0.913545 0.000000 -0.406737
vn 0.669131 0.000000 -0.743145
vn 0.913545 0.000000 -0.406737
vn 0.669131 0.000000 -0.743145
vn 0.309017 0.000000 -0.951056
vn 0.309017 0.000000 -0.951056
vn -0.104528 0.000000 -0.994522
vn -0.104528 0.000000 -0.994522
vn -0.500000 0.000000 -0.866025
vn -0.500000 0.000000 -0.866026
vn -0.809017 0.000000 -0.587785
vn -0.809017 0.000000 -0.587785
vn -0.978148 0.000000 -0.207912
vn -0.978148 0.000000 -0.207912
vn -0.978148 0.000000 0.207912
vn -0.978148 0.000000 0.207912
vn -0.809017 0.000000 0.587785
vn -0.809017 0.000000 0.587785
vn -0.500000 0.000000 0.866025
vn -0.500000 0.000000 0.866025
vn -0.104529 0.000000 0.994522
vn -0.104529 0.000000 0.994522
vn 0.309017 0.000000 0.951056
vn 0.309017 0.000000 0.951057
vn 0.669131 0.000000 0.743145
vn 0.669131 0.000000 0.743145
vn 0.913545 0.000000 0.406737
vn 0.913545 0.000000 0.406737
vn 1.000000 0.000000 -0.000000
vn 1.000000 0.000000 -0.000000
vn 0.000000 -1.000000 0.000000
vn 0.000000 -1.000000 0.000000
vn 0.000000 -1.000000 0.000000
vn 0.000000 -1.000000 0.000000
vn 0.000000 -1.000000 0.000000
vn 0.000000 -1.000000 0.000000
vn 0.000000 -1.000000 0.000000
vn 0.000000 -1.000000 0.000000
vn 0.000000 -1.000000 0.000000
vn 0.000000 -1.000000 0.000000
vn 0.000000 -1.000000 0.000000
vn 0.000000 -1.000000 0.000000
vn 0.000000 -1.000000 0.000000
vn 0.000000 -1.000000 0.000000
vn 0.000000 -1.000000 0.000000
vn 0.000000 -1.000000 0.000000
vn 0.000000 1.000000 0.000000
vn 0.000000 1.000000 0.000000
vn 0.000000 1.000000 0.000000
vn 0.000000 1.000000 0.000000
vn 0.000000 1.000000 0.000000
vn 0.000000 1.000000 0.000000
vn 0.000000 1.000000 0.000000
vn 0.000000 1.000000 0.000000
vn 0.000000 1.000000 0.000000
vn 0.000000 1.000000 0.000000
vn 0.000000 1.000000 0.000000
vn 0.000000 1.000000 0.000000
vn 0.000000 1.000000 0.000000
vn 0.000000 1.000000 0.000000
vn 0.000000 1.000000 0.000000
vn 0.000000 1.000000 0.000000
f 1/16/1 2/17/2 16/32/3
f 16/32/3 2/17/2 17/33/4
f 2/17/2 3/18/5 17/33/4
f 17/33/4 3/18/5 18/34/6
f 3/18/5 4/19/7 18/34/6
f 18/34/6 4/19/7 19/35/8
f 4/19/7 5/20/9 19/35/8
f 19/35/8 5/20/9 20/36/10
f 5/20/9 6/21/11 20/36/10
f 20/36/10 6/21/11 21/37/12
f 6/21/11 7/22/13 21/37/12
f 21/37/12 7/22/13 22/38/14
f 7/22/13 8/23/15 22/38/14
f 22/38/14 8/23/15 23/39/16
f 8/23/15 9/24/17 23/39/16
f 23/39/16 9/24/17 24/40/18
f 9/24/17 10/25/19 24/40/18
f 24/40/18 10/25/19 25/41/20
f 10/25/19 11/26/21 25/41/20
f 25/41/20 11/26/21 26/42/22
f 11/26/21 12/27/23 26/42/22
f 26/42/22 12/27/23 27/43/24
f 12/27/23 13/28/25 27/43/24
f 27/43/24 13/28/25 28/44/26
f 13/28/25 14/29/27 28/44/26
f 28/44/26 14/29/27 29/45/28
f 14/29/27 15/30/29 29/45/28
f 29/45/28 15/30/29 30/46/30
f 15/30/29 1/31/1 30/46/30
f 30/46/30 1/31/1 16/47/3
f 2/2/31 1/1/32 31/63/33
f 3/3/34 2/2/31 31/63/33
f 4/4/35 3/3/34 31/63/33
f 5/5/36 4/4/35 31/63/33
f 6/6/37 5/5/36 31/63/33
f 7/7/38 6/6/37 31/63/33
f 8/8/39 7/7/38 31/63/33
f 9/9/40 8/8/39 31/63/33
f 10/10/41 9/9/40 31/63/33
f 11/11/42 10/10/41 31/63/33
f 12/12/43 11/11/42 31/63/33
f 13/13/44 12/12/43 31/63/33
f 14/14/45 13/13/44 31/63/33
f 15/15/46 14/14/45 31/63/33
f 1/1/32 15/15/46 31/63/33
f 16/61/47 17/60/48 32/64/49
f 17/60/48 18/59/50 32/64/49
f 18/59/50 19/58/51 32/64/49
f 19/58/51 20/57/52 32/64/49
f 20/57/52 21/56/53 32/64/49
f 21/56/53 22/55/54 32/64/49
f 22/55/54 23/54/55 32/64/49
f 23/54/55 24/53/56 32/64/49
f 24/53/56 25/52/57 32/64/49
f 25/52/57 26/51/58 32/64/49
f 26/51/58 27/50/59 32/64/49
f 27/50/59 28/49/60 32/64/49
f 28/49/60 29/48/61 32/64/49
f 29/48/61 30/62/62 32/64/49
f 30/62/62 16/61/47 32/64/49
