# This file uses centimeters as units for non-parametric coordinates.

v -1.137921 0.086363 8.736017
v -1.137921 2.362205 8.736017
v 1.137921 0.086363 8.736017
v 1.137921 2.362205 8.736017
vt 0.000000 0.000000
vt 1.000000 0.000000
vt 0.000000 1.000000
vt 1.000000 1.000000
vn -0.000000 0.000000 -1.000000
vn -0.000000 0.000000 -1.000000
vn -0.000000 0.000000 -1.000000
vn -0.000000 0.000000 -1.000000
vn -0.000000 0.000000 -1.000000
vn -0.000000 0.000000 -1.000000
f 1/1/1 2/2/2 3/3/3
f 3/3/4 2/2/5 4/4/6
