# This file uses centimeters as units for non-parametric coordinates.

v -2.161700 6.895023 2.302007
v -2.161700 6.928663 0.026414
v 0.114142 6.895023 2.302007
v 0.114142 6.928663 0.026414
vt 0.000000 0.000000
vt 1.000000 0.000000
vt 0.000000 1.000000
vt 1.000000 1.000000
vn -0.000000 -0.999891 -0.014781
vn -0.000000 -0.999891 -0.014781
vn -0.000000 -0.999891 -0.014781
vn -0.000000 -0.999891 -0.014781
vn -0.000000 -0.999891 -0.014781
vn -0.000000 -0.999891 -0.014781
f 1/1/1 2/2/2 3/3/3
f 3/3/4 2/2/5 4/4/6
